<?xml version="1.0" standalone="no"?>
<!DOCTYPE svg PUBLIC "-//W3C//DTD SVG 20010904//EN"
 "http://www.w3.org/TR/2001/REC-SVG-20010904/DTD/svg10.dtd">
<svg version="1.0" xmlns="http://www.w3.org/2000/svg"
 width="192.000000pt" height="192.000000pt" viewBox="0 0 192.000000 192.000000"
 preserveAspectRatio="xMidYMid meet">

<g transform="translate(0.000000,192.000000) scale(0.100000,-0.100000)"
fill="#000000" stroke="none">
<path d="M0 960 l0 -960 960 0 960 0 0 960 0 960 -960 0 -960 0 0 -960z m421
145 c10 -61 18 -130 20 -155 2 -25 6 25 9 110 3 93 9 155 15 155 13 0 19 -565
6 -578 -14 -14 -20 21 -53 328 -1 11 -5 -59 -8 -155 -5 -172 -5 -175 -27 -178
l-23 -3 0 289 c0 159 3 292 7 296 4 4 14 5 23 4 11 -2 19 -31 31 -113z m963
-55 c10 -85 19 -162 20 -170 4 -24 13 24 32 170 9 74 20 142 25 150 10 18 10
-283 -1 -450 l-7 -115 -1 159 c-1 88 -4 157 -6 155 -3 -2 -10 -54 -17 -114
-15 -137 -24 -168 -32 -105 -22 167 -24 171 -26 38 -1 -107 -4 -128 -16 -128
-13 0 -15 38 -15 283 0 156 3 287 7 291 14 14 21 -14 37 -164z m-803 128 c22
-52 19 -470 -3 -520 -45 -102 -78 9 -78 263 0 145 13 253 32 277 18 21 35 14
49 -20z m314 -259 c0 -262 -1 -284 -17 -287 -17 -3 -18 12 -18 211 0 249 8
369 24 364 8 -3 11 -90 11 -288z m649 229 c3 -35 12 -139 21 -233 8 -93 17
-194 20 -223 4 -41 2 -53 -7 -50 -15 5 -14 4 -23 111 -6 65 -9 77 -25 77 -16
0 -19 -12 -25 -95 -4 -52 -11 -95 -16 -95 -11 0 -12 -15 5 202 8 101 18 225
21 276 4 50 11 92 15 92 5 0 11 -28 14 -62z m132 27 c16 -39 18 -83 4 -105 -8
-12 -10 -12 -14 3 -17 52 -18 53 -27 22 -13 -44 -16 -240 -4 -238 62 9 60 11
63 -37 8 -111 -25 -211 -61 -182 -27 22 -40 142 -35 326 3 129 8 180 21 209
20 46 34 47 53 2z m-986 6 c22 -43 8 -152 -22 -172 -6 -4 4 -78 26 -184 32
-166 36 -210 16 -188 -5 4 -21 71 -37 148 l-28 140 -3 -147 c-1 -88 -7 -148
-12 -148 -6 0 -10 107 -10 285 l0 285 30 0 c19 0 33 -7 40 -19z m123 -13 c36
-77 48 -307 24 -425 -15 -70 -39 -103 -74 -103 l-23 0 0 273 c0 151 3 277 7
280 18 19 51 5 66 -25z m187 6 c12 -31 13 -74 2 -74 -5 0 -14 12 -21 27 -18
38 -31 13 -31 -60 0 -43 7 -71 27 -110 46 -90 44 -279 -4 -318 -13 -11 -18
-10 -34 10 -11 13 -19 37 -19 55 l0 31 19 -24 19 -24 11 21 c19 35 12 87 -20
168 -29 73 -31 84 -27 178 2 56 9 111 16 124 17 30 50 28 62 -4z m70 -93 l5
-114 24 104 c28 123 31 130 40 124 4 -2 -6 -65 -23 -139 -27 -122 -29 -141
-19 -188 47 -217 47 -218 34 -230 -18 -19 -37 10 -47 75 l-8 52 -6 -60 c-4
-46 -9 -61 -22 -63 -17 -3 -18 15 -18 278 0 263 1 281 18 278 15 -3 18 -19 22
-117z m240 93 c13 -33 13 -74 0 -74 -5 0 -10 6 -10 14 0 7 -6 19 -14 26 -12 9
-17 4 -26 -30 -13 -50 -6 -88 29 -155 23 -45 26 -61 26 -160 0 -89 -3 -116
-18 -138 -9 -15 -23 -27 -31 -27 -16 0 -36 43 -36 78 l0 27 19 -24 19 -24 11
21 c18 34 13 88 -16 149 -25 53 -27 69 -28 178 0 128 10 165 46 165 12 0 23
-10 29 -26z"/>
<path d="M552 910 c0 -19 2 -27 5 -17 2 9 2 25 0 35 -3 9 -5 1 -5 -18z"/>
<path d="M1519 982 c-3 -61 -1 -82 9 -82 14 0 15 61 3 125 -7 35 -8 31 -12
-43z"/>
<path d="M1635 762 c8 -45 13 -51 25 -32 17 26 11 57 -11 63 -19 5 -20 3 -14
-31z"/>
<path d="M640 1094 c0 -46 13 -55 33 -22 13 20 0 68 -18 68 -11 0 -15 -12 -15
-46z"/>
<path d="M793 925 c0 -27 2 -38 4 -22 2 15 2 37 0 50 -2 12 -4 0 -4 -28z"/>
</g>
</svg>
