<?xml version="1.0" encoding="UTF-8"?>
<svg version="1.1" xmlns="http://www.w3.org/2000/svg" width="1024" height="1536">
<path d="M0 0 C337.92 0 675.84 0 1024 0 C1024 506.88 1024 1013.76 1024 1536 C686.08 1536 348.16 1536 0 1536 C0 1029.12 0 522.24 0 0 Z " fill="#BBBBBB" transform="translate(0,0)"/>
<path d="M0 0 C1.6213724 -0.0105696 3.24272285 -0.02546417 4.86401367 -0.04486084 C7.16976512 -0.06875664 9.47454247 -0.07100499 11.78039551 -0.06674194 C12.81221703 -0.08041306 12.81221703 -0.08041306 13.86488342 -0.09436035 C19.48822106 -0.04181587 24.08338692 1.26088589 28.52648926 4.80435181 C32.3389567 9.33987342 34.16222683 13.58841361 35.63586426 19.29653931 C36.01871582 20.70999634 36.01871582 20.70999634 36.40930176 22.15200806 C47.1498794 63.25332745 43.56381376 109.9117126 31.63586426 150.29653931 C31.36322754 151.22031372 31.09059082 152.14408813 30.80969238 153.09585571 C19.10593205 191.60609251 -3.14667215 230.47547602 -34.30163574 256.54263306 C-36.7340378 258.61109617 -39.03650099 260.79841798 -41.36413574 262.98403931 C-62.95686096 282.61378951 -89.14261721 297.74637595 -115.34216309 310.32241821 C-117.46690044 311.34604802 -119.58139122 312.38921925 -121.69616699 313.43325806 C-134.63881283 319.76065019 -147.92301723 325.12638654 -161.36413574 330.29653931 C-162.30692383 330.66166626 -163.24971191 331.02679321 -164.22106934 331.40298462 C-182.23892889 338.3361315 -200.67389413 343.50805486 -219.42663574 348.04653931 C-220.2860376 348.25842896 -221.14543945 348.4703186 -222.03088379 348.68862915 C-225.92685998 349.61783431 -229.70004058 350.39079988 -233.69616699 350.70669556 C-243.87072539 351.62307161 -248.4298409 355.23505889 -254.96716309 362.87979126 C-256.1122992 364.25641902 -257.25334744 365.63645642 -258.39050293 367.01968384 C-262.13863686 371.34366912 -266.27156222 375.30145714 -270.36413574 379.29653931 C-269.68915039 379.27148315 -269.01416504 379.246427 -268.31872559 379.22061157 C-265.47999188 379.11851717 -262.64108993 379.02298416 -259.80206299 378.92944336 C-258.42098853 378.88230973 -257.04000284 378.83250307 -255.65911865 378.78009033 C-245.76044088 378.40555255 -235.8881014 378.27891028 -225.98214722 378.38829041 C-221.15728012 378.4411266 -216.33247753 378.45206576 -211.50734901 378.45636272 C-208.04245707 378.46251692 -204.58077665 378.49152951 -201.11676025 378.57220459 C-181.33239365 379.38084122 -181.33239365 379.38084122 -164.777771 369.97395325 C-163.73961486 368.91024971 -162.71699864 367.83106417 -161.71368408 366.73443604 C-159.90785322 364.81038617 -157.89796918 363.26692259 -155.77819824 361.70278931 C-155.14744385 361.21673218 -154.51668945 360.73067505 -153.86682129 360.22988892 C-133.83513043 344.93850196 -113.25637816 330.98736091 -90.36413574 320.29653931 C-89.66643066 319.96702271 -88.96872559 319.6375061 -88.24987793 319.29800415 C-53.61234395 303.03687178 -17.2750648 294.84259156 20.94836426 294.92153931 C21.85607574 294.92141846 22.76378723 294.92129761 23.69900513 294.9211731 C70.05971979 295.00846707 70.05971979 295.00846707 88.63586426 304.29653931 C88.63586426 373.59653931 88.63586426 442.89653931 88.63586426 514.29653931 C76.33304195 515.52682154 64.59788975 516.66087176 52.32336426 516.60903931 C51.62207397 516.60721649 50.92078369 516.60539368 50.19824219 516.60351562 C-15.79465948 516.31792469 -74.17477988 483.69855781 -124.36413574 443.29653931 C-125.00061035 442.78623169 -125.63708496 442.27592407 -126.29284668 441.75015259 C-134.11050767 435.47580242 -141.82983235 429.10416825 -149.41125488 422.54605103 C-152.98828588 419.45588367 -156.61923195 416.44902655 -160.30163574 413.48403931 C-163.98369472 410.49640373 -167.38217513 407.40134187 -170.67272949 403.99185181 C-173.18170758 401.47707931 -175.86977919 399.18370851 -178.56726074 396.87466431 C-180.36413574 395.29653931 -180.36413574 395.29653931 -181.72340393 393.72117615 C-183.76763832 391.94618063 -184.73654087 391.92186349 -187.41271973 391.92422485 C-188.23306702 391.9180867 -189.05341431 391.91194855 -189.89862061 391.90562439 C-190.79345154 391.9147435 -191.68828247 391.92386261 -192.61022949 391.93325806 C-194.02389801 391.9312867 -194.02389801 391.9312867 -195.46612549 391.92927551 C-198.57825866 391.93087513 -201.68963332 391.95626547 -204.80163574 391.98403931 C-206.96024532 391.99406574 -209.11885535 392.00399301 -211.27746582 392.01382446 C-226.04640813 392.112198 -240.79731543 392.51743042 -255.55163574 393.17153931 C-256.91975906 393.23007584 -256.91975906 393.23007584 -258.31552124 393.28979492 C-278.24280987 393.03604638 -278.24280987 393.03604638 -295.17663574 401.42153931 C-295.69032715 401.88946899 -296.20401855 402.35739868 -296.73327637 402.83950806 C-297.96563781 403.96821293 -299.168546 405.12895437 -300.36413574 406.29653931 C-299.00268267 409.43262276 -297.56901785 411.21107381 -294.92663574 413.35903931 C-291.38851292 416.34493244 -288.11534847 419.50010805 -284.86413574 422.79653931 C-281.22717202 426.47864813 -277.51775786 430.00056508 -273.58288574 433.36294556 C-270.6632741 435.90732542 -267.82833248 438.53809332 -264.98913574 441.17153931 C-260.32227602 445.49679105 -255.62131977 449.77919337 -250.88366699 454.02700806 C-246.52105499 457.95674073 -242.20230987 461.93429181 -237.87878418 465.90689087 C-236.42039169 467.24492602 -234.95873381 468.57939938 -233.49694824 469.91372681 C-227.64804573 475.25540742 -221.83660804 480.63565297 -216.05163574 486.04653931 C-215.06501953 486.96741333 -215.06501953 486.96741333 -214.05847168 487.90689087 C-210.94515318 490.82513534 -207.87774773 493.7714732 -204.88366699 496.81216431 C-202.55350678 499.16365804 -200.15804142 501.37308064 -197.64245605 503.52432251 C-193.38496194 507.22966526 -189.37533444 511.14067693 -185.39147949 515.13638306 C-184.66473526 515.86217056 -183.93799103 516.58795807 -183.18922424 517.33573914 C-181.66451278 518.85977486 -180.14104424 520.385055 -178.61877441 521.91152954 C-176.30779683 524.22786394 -173.99152803 526.53881008 -171.67468262 528.84927368 C-170.18412754 530.34048965 -168.69388274 531.83201583 -167.20397949 533.32388306 C-166.52149643 534.00434189 -165.83901337 534.68480072 -165.135849 535.38587952 C-161.22421785 539.31635378 -157.49847275 543.35487152 -153.87483215 547.55226135 C-152.20419359 549.48121147 -150.48010766 551.34766964 -148.71569824 553.19107056 C-148.10774414 553.83044556 -147.49979004 554.46982056 -146.87341309 555.12857056 C-145.9406958 556.10890259 -145.9406958 556.10890259 -144.98913574 557.10903931 C-139.1526812 563.29502486 -133.65740541 569.63726456 -128.36413574 576.29653931 C-127.33891645 577.54438153 -126.31140352 578.79034142 -125.28210449 580.03482056 C-109.75647482 598.84511339 -95.6615444 619.07323315 -83.53747559 640.24819946 C-82.70313789 641.70473156 -81.86154144 643.15711609 -81.01501465 644.6065979 C-69.98107206 663.58109842 -61.69736154 683.6337573 -54.36413574 704.29653931 C-36.65816642 701.73295032 -19.38074778 698.99381383 -2.36413574 693.29653931 C-1.6955957 693.07949341 -1.02705566 692.86244751 -0.33825684 692.63882446 C14.36622692 687.80177431 28.44852458 680.70065855 42.09680176 673.46060181 C46.00988451 671.66660387 49.42205388 671.61567228 53.63586426 672.29653931 C60.22007805 675.65076143 63.50701003 680.21531298 65.99645996 687.08023071 C70.93149443 704.18608902 62.47666438 720.64012062 55.44885254 735.7406311 C41.6686165 765.73700349 40.13586413 793.56275164 46.26477051 825.83950806 C47.71118799 833.48139691 48.81018157 841.14901415 49.82336426 848.85903931 C49.97772949 850.00984985 50.13209473 851.1606604 50.2911377 852.34634399 C50.76651674 855.99366653 51.20824407 859.64330438 51.63586426 863.29653931 C51.72380249 864.03471893 51.81174072 864.77289856 51.90234375 865.53344727 C53.42478449 878.53363777 54.04209112 891.39795944 54.01086426 904.48403931 C54.00965576 905.43397766 54.00844727 906.38391602 54.00720215 907.36264038 C53.8492455 953.56014376 43.93783299 998.66889704 23.63586426 1040.29653931 C23.30183594 1040.99440552 22.96780762 1041.69227173 22.62365723 1042.4112854 C13.0379469 1062.25762314 0.12570375 1080.73128259 -14.36413574 1097.29653931 C-14.83657715 1097.83665649 -15.30901855 1098.37677368 -15.79577637 1098.93325806 C-25.83429643 1110.30556749 -36.38226308 1120.97730502 -48.36413574 1130.29653931 C-48.9841748 1130.78767212 -49.60421387 1131.27880493 -50.24304199 1131.78482056 C-60.21514733 1139.68180571 -70.38435223 1146.87150607 -81.36413574 1153.29653931 C-82.06619141 1153.7100061 -82.76824707 1154.1234729 -83.49157715 1154.54946899 C-114.03127462 1172.40260151 -147.95206051 1184.42195665 -182.98913574 1189.42153931 C-184.12608887 1189.59040649 -185.26304199 1189.75927368 -186.43444824 1189.93325806 C-189.74135379 1190.41488306 -193.05014331 1190.86654789 -196.36413574 1191.29653931 C-197.20573242 1191.40619019 -198.0473291 1191.51584106 -198.91442871 1191.6288147 C-207.71273864 1192.59765044 -216.57181891 1192.48260703 -225.4119873 1192.48184204 C-228.19828063 1192.48400755 -230.98416321 1192.50215619 -233.77038574 1192.52114868 C-311.99592372 1192.7687977 -394.78046754 1162.91322847 -451.53210449 1108.20669556 C-452.64963111 1107.07930115 -453.76003397 1105.9447592 -454.86022949 1104.80044556 C-456.45222985 1103.2084452 -458.12716021 1101.79061255 -459.86413574 1100.35903931 C-462.9959019 1097.71121052 -465.65671459 1094.85290503 -468.30554199 1091.72622681 C-469.8532402 1089.89953177 -471.42833037 1088.09598985 -473.01647949 1086.30435181 C-478.74827991 1079.81119163 -484.10296043 1073.13063043 -489.17663574 1066.10903931 C-490.00493896 1064.96362671 -490.00493896 1064.96362671 -490.84997559 1063.79507446 C-493.18094732 1060.52634736 -495.44095505 1057.27073535 -497.42272949 1053.77700806 C-497.98089355 1052.79345337 -498.53905762 1051.80989868 -499.11413574 1050.79653931 C-499.54210449 1049.96122681 -499.97007324 1049.12591431 -500.41101074 1048.26528931 C-504.87064575 1043.76997721 -513.58883754 1043.87677409 -519.69226074 1043.26138306 C-520.49448059 1043.17903915 -521.29670044 1043.09669525 -522.12322998 1043.01185608 C-532.84311852 1041.97802233 -543.60228252 1041.53641371 -554.35742188 1041.0355835 C-650.32067018 1036.52585651 -742.01156907 1023.28273674 -861.36413574 927.29653931 C-864.48319128 923.71849232 -867.43380338 920.0297725 -870.36413574 916.29653931 C-871.15433105 915.33489868 -871.94452637 914.37325806 -872.75866699 913.38247681 C-880.05841184 904.30090448 -885.79524935 894.51337047 -891.36413574 884.29653931 C-891.73280762 883.62783813 -892.10147949 882.95913696 -892.48132324 882.27017212 C-903.43115594 862.21263082 -911.08356423 839.79790715 -915.17443848 817.35806274 C-915.55167976 815.29629871 -915.94439307 813.23790371 -916.33874512 811.17935181 C-928.74340704 745.22194299 -908.0841188 677.64709316 -870.86413574 623.04653931 C-865.93421105 615.94370942 -860.73976163 609.06649556 -855.36413574 602.29653931 C-854.62550293 601.36325806 -853.88687012 600.42997681 -853.12585449 599.46841431 C-847.92395485 593.00068828 -842.40130973 586.87055527 -836.74938965 580.79946899 C-835.41075479 579.34711859 -834.09593375 577.87292981 -832.78210449 576.39810181 C-816.58085203 558.27796037 -797.92179607 542.49596615 -778.5213623 527.92593384 C-776.37154398 526.30213489 -774.23681747 524.66043456 -772.10632324 523.01138306 C-771.39524414 522.46224243 -770.68416504 521.91310181 -769.95153809 521.34732056 C-768.64542145 520.33786807 -767.34080891 519.32646302 -766.03845215 518.31216431 C-752.38090339 507.80039606 -737.98001669 498.23838496 -723.69885254 488.6053772 C-720.93014479 486.73640803 -718.16565585 484.86130956 -715.40124512 482.98599243 C-704.82680488 475.83483616 -694.13003288 468.97254596 -683.18826294 462.39807129 C-679.39819357 460.1093698 -675.66222397 457.73518924 -671.92663574 455.35903931 C-670.32768726 454.34600292 -668.72872864 453.33298254 -667.12976074 452.31997681 C-665.94350098 451.56732544 -665.94350098 451.56732544 -664.73327637 450.79946899 C-660.88344477 448.35722216 -657.03034484 445.92016153 -653.17663574 443.48403931 C-652.39570557 442.98960327 -651.61477539 442.49516724 -650.81018066 441.98574829 C-646.55194807 439.29378193 -642.28175796 436.62329486 -637.99304199 433.98013306 C-610.23203101 416.83827108 -582.59451109 399.04346816 -557.36413574 378.29653931 C-556.50046387 377.60560181 -555.63679199 376.91466431 -554.74694824 376.20278931 C-547.68204373 370.51884347 -540.94192587 364.53244429 -534.36413574 358.29653931 C-533.53027344 357.51367554 -533.53027344 357.51367554 -532.67956543 356.71499634 C-502.43241698 328.1501427 -481.60040085 288.99629706 -480.25402832 246.84976196 C-480.19393577 242.95667751 -480.17033446 239.06497366 -480.17663574 235.17153931 C-480.17723999 234.48234406 -480.17784424 233.7931488 -480.1784668 233.08306885 C-480.20245954 223.00772421 -480.46490417 213.22190205 -482.36413574 203.29653931 C-482.49835938 202.58288208 -482.63258301 201.86922485 -482.77087402 201.13394165 C-484.55061507 191.87258708 -486.86219142 183.1642875 -490.41101074 174.40982056 C-491.54431054 170.70801754 -491.9442194 168.14179083 -491.36413574 164.29653931 C-487.55820089 160.23376222 -483.22456277 157.95864305 -478.11413574 155.79653931 C-477.4259375 155.50319702 -476.73773926 155.20985474 -476.02868652 154.90762329 C-464.01714514 149.95208627 -450.51557614 145.05877678 -437.36413574 147.29653931 C-428.80408355 152.77497271 -425.98732757 166.42864742 -422.67663574 175.67153931 C-422.13746511 177.1660839 -421.59807393 178.66054894 -421.05847168 180.15493774 C-418.01649243 188.59801008 -415.03351051 197.06023102 -412.11413574 205.54653931 C-379.92546576 299.29241057 -379.92546576 299.29241057 -325.36413574 381.29653931 C-324.68995605 382.08415649 -324.01577637 382.87177368 -323.32116699 383.68325806 C-319.82660708 387.73324471 -316.19321831 391.560849 -312.36413574 395.29653931 C-308.04322719 393.83493808 -304.72164608 391.52977541 -301.17663574 388.73403931 C-300.60928711 388.29221313 -300.04193848 387.85038696 -299.45739746 387.39517212 C-294.99501416 383.88193863 -290.74609276 380.1672541 -286.57116699 376.31607056 C-284.64931422 374.55749023 -282.68766085 372.88834156 -280.67663574 371.23403931 C-277.58489306 368.60856872 -275.0273726 365.68527954 -272.40710449 362.59732056 C-268.28292519 357.95269033 -263.79054599 353.65091032 -259.36413574 349.29653931 C-260.38458246 346.20711346 -261.42386982 343.12830863 -262.51257324 340.06216431 C-281.70689408 285.04659502 -276.40899729 220.35885268 -251.63366699 167.98794556 C-250.87777116 166.42384631 -250.12120451 164.86007116 -249.36413574 163.29653931 C-248.68423584 161.86157104 -248.68423584 161.86157104 -247.99060059 160.39761353 C-234.97969845 133.00691395 -219.42749692 107.62057747 -198.47351074 85.58169556 C-196.24404935 83.28624123 -196.24404935 83.28624123 -194.36413574 80.29653931 C-193.70413574 80.29653931 -193.04413574 80.29653931 -192.36413574 80.29653931 C-192.12308105 79.72032837 -191.88202637 79.14411743 -191.63366699 78.55044556 C-189.01800975 73.90664792 -184.35515532 70.73925501 -180.36413574 67.29653931 C-179.37800293 66.42384399 -178.39187012 65.55114868 -177.37585449 64.65200806 C-141.95133733 33.60240757 -97.92015737 15.41843351 -52.36413574 5.29653931 C-51.55524902 5.11510376 -50.7463623 4.93366821 -49.91296387 4.74673462 C-45.41683561 3.76002774 -40.91753649 2.96726846 -36.36413574 2.29653931 C-35.36543457 2.1442688 -35.36543457 2.1442688 -34.34655762 1.98892212 C-22.94465149 0.32636267 -11.50348845 0.07495571 0 0 Z " fill="#4A4A4A" transform="translate(935.3641357421875,309.7034606933594)"/>
<path d="M0 0 C3.21954645 2.53453657 4.70432435 4.11297305 6 8 C7.32191573 21.33246433 3.21981684 32.49117578 -1.0078125 44.890625 C-12.658554 79.13069488 -12.35411087 110.82989629 -7.5625 146.5 C-7.23218373 149.04276914 -6.90340219 151.58573813 -6.57617188 154.12890625 C-6.11647705 157.70117498 -5.65490926 161.2730305 -5.18055725 164.84338379 C-3.89458497 174.54311995 -2.84768959 184.07988413 -2.796875 193.87109375 C-2.78986069 194.78289398 -2.78284637 195.69469421 -2.77561951 196.63412476 C-2.75819094 199.56863393 -2.75176494 202.50294093 -2.75 205.4375 C-2.74898788 206.9449025 -2.74898788 206.9449025 -2.74795532 208.48275757 C-2.79692935 254.44923364 -12.27031467 299.25040044 -34 340 C-34.34111816 340.64888184 -34.68223633 341.29776367 -35.03369141 341.96630859 C-43.74841268 358.4499989 -54.53918988 373.16401038 -67 387 C-67.51626953 387.5779834 -68.03253906 388.1559668 -68.56445312 388.75146484 C-73.80743652 394.60677933 -79.06025856 400.36612731 -85.10546875 405.4140625 C-87.13228565 407.11073809 -89.0575638 408.89504475 -91 410.6875 C-137.58164978 451.99575546 -200.74598381 472.52588193 -262.375 472.3125 C-263.43626099 472.31100952 -264.49752197 472.30951904 -265.59094238 472.3079834 C-281.57251159 472.26761829 -297.22302815 471.77528239 -313 469 C-313.89412598 468.8448291 -314.78825195 468.6896582 -315.70947266 468.52978516 C-320.76532821 467.62784038 -325.78437881 466.6067079 -330.79589844 465.48535156 C-332.80833523 465.04220531 -334.82967639 464.64000282 -336.8515625 464.2421875 C-365.73041198 458.18409891 -393.8989884 446.61991841 -419.98388672 433.04492188 C-422.16059981 431.91676348 -424.34757059 430.81004058 -426.53515625 429.703125 C-443.22461182 421.18055735 -459.01295319 411.24902901 -474 400 C-474.57556641 399.56864746 -475.15113281 399.13729492 -475.74414062 398.69287109 C-484.65611344 391.96467552 -492.92918889 384.71089656 -501 377 C-501.72703125 376.32582031 -502.4540625 375.65164063 -503.203125 374.95703125 C-535.07370159 344.57633934 -556.98251694 296.25420062 -558.19833374 252.3500061 C-559.45086417 194.15571663 -539.83663287 145.20702824 -501 102 C-500.50113281 101.43941895 -500.00226563 100.87883789 -499.48828125 100.30126953 C-489.22803628 88.79805787 -478.06383487 78.72267742 -465.81054688 69.38232422 C-464.62560849 68.4776423 -463.44444528 67.56798888 -462.26757812 66.65283203 C-446.49848979 54.40538743 -429.06362496 44.45377648 -411 36 C-410.24041992 35.6395459 -409.48083984 35.2790918 -408.69824219 34.90771484 C-373.63229971 18.33506744 -336.30886969 9.15961239 -298 4 C-297.17145508 3.88527344 -296.34291016 3.77054688 -295.48925781 3.65234375 C-294.75288086 3.55050781 -294.01650391 3.44867187 -293.2578125 3.34375 C-292.34346436 3.21709961 -292.34346436 3.21709961 -291.41064453 3.08789062 C-278.33894662 1.42180303 -265.29380851 0.80332894 -252.125 0.8125 C-251.11102646 0.81290787 -251.11102646 0.81290787 -250.0765686 0.81332397 C-216.42801439 0.87436909 -183.18382381 4.52852415 -149.98779297 9.84277344 C-145.32888007 10.58709398 -140.6668879 11.30740542 -136 12 C-135.29757172 12.10458527 -134.59514343 12.20917053 -133.87142944 12.31692505 C-121.76769282 14.06751616 -109.78005954 14.36166417 -97.5625 14.3125 C-96.5967807 14.31034485 -95.6310614 14.3081897 -94.63607788 14.30596924 C-65.898729 14.20330512 -38.63192303 10.45077516 -11.40234375 0.8828125 C-7.31034061 -0.17894721 -4.21855491 -0.31199729 0 0 Z " fill="#606060" transform="translate(973,1002)"/>
<path d="M0 0 C1.6213724 -0.0105696 3.24272285 -0.02546417 4.86401367 -0.04486084 C7.16976512 -0.06875664 9.47454247 -0.07100499 11.78039551 -0.06674194 C12.81221703 -0.08041306 12.81221703 -0.08041306 13.86488342 -0.09436035 C19.48822106 -0.04181587 24.08338692 1.26088589 28.52648926 4.80435181 C32.3389567 9.33987342 34.16222683 13.58841361 35.63586426 19.29653931 C36.01871582 20.70999634 36.01871582 20.70999634 36.40930176 22.15200806 C47.1498794 63.25332745 43.56381376 109.9117126 31.63586426 150.29653931 C31.36322754 151.22031372 31.09059082 152.14408813 30.80969238 153.09585571 C19.10593205 191.60609251 -3.14667215 230.47547602 -34.30163574 256.54263306 C-36.7340378 258.61109617 -39.03650099 260.79841798 -41.36413574 262.98403931 C-62.95686096 282.61378951 -89.14261721 297.74637595 -115.34216309 310.32241821 C-117.46690044 311.34604802 -119.58139122 312.38921925 -121.69616699 313.43325806 C-134.63881283 319.76065019 -147.92301723 325.12638654 -161.36413574 330.29653931 C-162.30692383 330.66166626 -163.24971191 331.02679321 -164.22106934 331.40298462 C-178.69339772 336.9718358 -193.36825581 341.37094154 -208.36413574 345.29653931 C-209.33399414 345.5562854 -210.30385254 345.81603149 -211.30310059 346.08364868 C-221.78481663 348.87399088 -231.44077664 351.20850806 -242.36413574 350.29653931 C-240.84334501 346.78826016 -238.76456844 344.34382284 -236.17663574 341.54653931 C-235.36581543 340.66095337 -234.55499512 339.77536743 -233.71960449 338.86294556 C-232.55364746 337.59257446 -232.55364746 337.59257446 -231.36413574 336.29653931 C-223.6862944 327.69939989 -216.24778281 318.87476023 -208.98913574 309.92153931 C-204.82424971 304.80126723 -200.50675426 299.82526086 -196.16809082 294.85269165 C-192.93419187 291.13718848 -189.77091641 287.38016137 -186.67663574 283.54653931 C-182.8956602 278.87388946 -178.88853554 274.4544119 -174.82116699 270.03091431 C-171.70108115 266.55864071 -168.77920489 262.94826065 -165.84851074 259.31607056 C-162.89800354 255.72999812 -159.85607089 252.23155745 -156.80163574 248.73403931 C-152.58244951 243.89868926 -148.4916019 239.00217036 -144.52429199 233.95669556 C-141.18864205 229.84896027 -137.69436379 225.87974438 -134.19421387 221.91177368 C-133.67149902 221.31558228 -133.14878418 220.71939087 -132.61022949 220.10513306 C-132.07551025 219.50064331 -131.54079102 218.89615356 -130.98986816 218.27334595 C-129.29952071 216.28418328 -129.29952071 216.28418328 -127.77941895 213.92715454 C-124.03208134 208.43065269 -121.28582875 206.25575163 -114.7388916 204.98208618 C-113.72834717 204.81773071 -112.71780273 204.65337524 -111.67663574 204.48403931 C-109.36994833 204.02922358 -107.06540123 203.56347792 -104.76257324 203.08950806 C-104.12796677 202.96131683 -103.49336029 202.83312561 -102.83952332 202.7010498 C-94.03444603 200.88251844 -85.37822686 198.46572465 -76.70993042 196.09185791 C-73.87114546 195.31554782 -71.0295822 194.55014345 -68.18762207 193.78555298 C-58.2075907 191.0739862 -48.42706284 188.06614378 -38.71984863 184.49575806 C-36.25841811 183.6161257 -33.91179626 182.8469473 -31.36413574 182.29653931 C-31.36413574 180.64653931 -31.36413574 178.99653931 -31.36413574 177.29653931 C-37.38698224 178.62087193 -43.40757186 179.95511953 -49.42663574 181.29653931 C-50.77728119 181.59733398 -50.77728119 181.59733398 -52.1552124 181.90420532 C-65.67987832 184.9251261 -79.11994248 188.17147205 -92.48937988 191.81997681 C-99.12668232 193.60083988 -105.49405194 194.91170466 -112.36413574 195.29653931 C-108.44518212 189.12818628 -104.14116917 183.37641407 -99.60290527 177.65884399 C-95.07673577 171.95425447 -90.71369629 166.1367605 -86.36413574 160.29653931 C-85.45333281 159.08380721 -84.54184047 157.87159268 -83.62976074 156.65982056 C-75.8023945 146.258354 -68.05418898 135.79992213 -60.36413574 125.29653931 C-59.5102124 124.13106567 -59.5102124 124.13106567 -58.63903809 122.94204712 C-51.28764682 112.89113549 -44.15482635 102.73501725 -37.36413574 92.29653931 C-36.78663574 91.41482056 -36.20913574 90.53310181 -35.61413574 89.62466431 C-29.61512201 80.33772959 -24.00369436 70.80420768 -18.36413574 61.29653931 C-17.93294434 60.57305298 -17.50175293 59.84956665 -17.05749512 59.10415649 C-15.92215772 57.19389171 -14.79725199 55.2779672 -13.67663574 53.35903931 C-13.05401855 52.29814087 -12.43140137 51.23724243 -11.78991699 50.14419556 C-10.44560451 47.45925364 -9.77274124 45.25484309 -9.36413574 42.29653931 C-12.82869744 42.55698713 -14.09906956 43.01164153 -16.50476074 45.59732056 C-17.20085449 46.59118774 -17.89694824 47.58505493 -18.61413574 48.60903931 C-19.40673503 49.7186783 -20.19971355 50.8280465 -20.99304199 51.93716431 C-21.58883057 52.78504517 -21.58883057 52.78504517 -22.19665527 53.65005493 C-23.92897266 56.09312236 -25.74187801 58.47299001 -27.55163574 60.85903931 C-33.30341537 68.52807881 -38.9801181 76.25245872 -44.65808105 83.97622681 C-46.22304816 86.10465373 -47.78950984 88.23197141 -49.35632324 90.35903931 C-53.67271262 96.22501775 -57.95766746 102.11006195 -62.17663574 108.04653931 C-71.65638636 121.36963807 -81.43762317 134.46371058 -91.39929199 147.42935181 C-95.43457343 152.6833424 -99.40105011 157.98791625 -103.36413574 163.29653931 C-115.75952286 179.89711104 -128.41099759 196.28477515 -141.52307129 212.32608032 C-144.61047017 216.11055992 -147.64567407 219.92765956 -150.63220215 223.79214478 C-154.73525079 229.09702199 -158.96104176 234.22184886 -163.48913574 239.17153931 C-163.96302734 239.6900647 -164.43691895 240.20859009 -164.9251709 240.74282837 C-166.04791556 241.94976851 -167.20282603 243.12665905 -168.36413574 244.29653931 C-168.69413574 244.29653931 -169.02413574 244.29653931 -169.36413574 244.29653931 C-169.55442606 202.25116167 -169.55442606 202.25116167 -168.72424316 187.64834595 C-168.3546715 180.9670037 -168.25157023 174.30034883 -168.23913574 167.60903931 C-168.23462402 166.6207312 -168.2301123 165.6324231 -168.22546387 164.61416626 C-168.22739746 163.70110718 -168.22933105 162.7880481 -168.23132324 161.84732056 C-168.23301514 160.63556152 -168.23301514 160.63556152 -168.23474121 159.39932251 C-168.28547022 157.10359614 -168.28547022 157.10359614 -169.36413574 154.29653931 C-170.35413574 154.62653931 -171.34413574 154.95653931 -172.36413574 155.29653931 C-174.7463539 166.67080585 -176.16056857 177.89851125 -176.98913574 189.48403931 C-177.08601181 190.74090546 -177.08601181 190.74090546 -177.18484497 192.02316284 C-177.99224199 202.54087928 -178.45245773 213.00889896 -178.49304199 223.55825806 C-178.50400909 225.07944496 -178.50400909 225.07944496 -178.51519775 226.63136292 C-178.54812879 231.57183398 -178.53965867 236.50579071 -178.45837402 241.44570923 C-178.38828958 256.26223072 -178.38828958 256.26223072 -183.14538574 262.25357056 C-184.51860256 263.6348714 -185.92113856 264.98830555 -187.36413574 266.29653931 C-188.14401855 267.26204712 -188.92390137 268.22755493 -189.72741699 269.22232056 C-194.18621115 274.68188614 -198.70670833 280.08378546 -203.27307129 285.45327759 C-206.2233526 288.92838592 -209.12056244 292.44080155 -211.98913574 295.98403931 C-215.56579887 300.38168027 -219.30738397 304.58922087 -223.12585449 308.77700806 C-225.39260733 311.32858847 -227.53953661 313.94825462 -229.67663574 316.60903931 C-234.07917733 322.052462 -238.78499601 327.15921165 -243.55944824 332.27310181 C-245.87816247 334.75954619 -248.13799497 337.28894546 -250.36413574 339.85903931 C-255.00326113 345.1979841 -255.00326113 345.1979841 -257.36413574 347.29653931 C-258.02413574 347.29653931 -258.68413574 347.29653931 -259.36413574 347.29653931 C-271.63296605 321.14043725 -274.63488101 290.85891327 -273.36413574 262.29653931 C-273.32014648 261.19632446 -273.27615723 260.09610962 -273.23083496 258.96255493 C-271.75219852 225.24393884 -264.08915368 193.7072965 -249.36413574 163.29653931 C-248.91086914 162.3398938 -248.45760254 161.38324829 -247.99060059 160.39761353 C-234.97969845 133.00691395 -219.42749692 107.62057747 -198.47351074 85.58169556 C-196.24404935 83.28624123 -196.24404935 83.28624123 -194.36413574 80.29653931 C-193.70413574 80.29653931 -193.04413574 80.29653931 -192.36413574 80.29653931 C-192.00255371 79.4322229 -192.00255371 79.4322229 -191.63366699 78.55044556 C-189.01800975 73.90664792 -184.35515532 70.73925501 -180.36413574 67.29653931 C-178.88493652 65.98749634 -178.88493652 65.98749634 -177.37585449 64.65200806 C-141.95133733 33.60240757 -97.92015737 15.41843351 -52.36413574 5.29653931 C-51.55524902 5.11510376 -50.7463623 4.93366821 -49.91296387 4.74673462 C-45.41683561 3.76002774 -40.91753649 2.96726846 -36.36413574 2.29653931 C-35.69833496 2.19502563 -35.03253418 2.09351196 -34.34655762 1.98892212 C-22.94465149 0.32636267 -11.50348845 0.07495571 0 0 Z " fill="#606060" transform="translate(935.3641357421875,309.7034606933594)"/>
<path d="M0 0 C3.21954645 2.53453657 4.70432435 4.11297305 6 8 C7.32191573 21.33246433 3.21981684 32.49117578 -1.0078125 44.890625 C-12.658554 79.13069488 -12.35411087 110.82989629 -7.5625 146.5 C-7.23218373 149.04276914 -6.90340219 151.58573813 -6.57617188 154.12890625 C-6.11647705 157.70117498 -5.65490926 161.2730305 -5.18055725 164.84338379 C-3.89458497 174.54311995 -2.84768959 184.07988413 -2.796875 193.87109375 C-2.78986069 194.78289398 -2.78284637 195.69469421 -2.77561951 196.63412476 C-2.75819094 199.56863393 -2.75176494 202.50294093 -2.75 205.4375 C-2.74898788 206.9449025 -2.74898788 206.9449025 -2.74795532 208.48275757 C-2.79692935 254.44923364 -12.27031467 299.25040044 -34 340 C-34.34111816 340.64888184 -34.68223633 341.29776367 -35.03369141 341.96630859 C-43.74841268 358.4499989 -54.53918988 373.16401038 -67 387 C-67.51626953 387.5779834 -68.03253906 388.1559668 -68.56445312 388.75146484 C-73.80743652 394.60677933 -79.06025856 400.36612731 -85.10546875 405.4140625 C-87.13228565 407.11073809 -89.0575638 408.89504475 -91 410.6875 C-137.58164978 451.99575546 -200.74598381 472.52588193 -262.375 472.3125 C-263.43626099 472.31100952 -264.49752197 472.30951904 -265.59094238 472.3079834 C-281.57251159 472.26761829 -297.22302815 471.77528239 -313 469 C-313.89412598 468.8448291 -314.78825195 468.6896582 -315.70947266 468.52978516 C-320.76532821 467.62784038 -325.78437881 466.6067079 -330.79589844 465.48535156 C-332.80833523 465.04220531 -334.82967639 464.64000282 -336.8515625 464.2421875 C-365.73041198 458.18409891 -393.8989884 446.61991841 -419.98388672 433.04492188 C-422.16059981 431.91676348 -424.34757059 430.81004058 -426.53515625 429.703125 C-443.22461182 421.18055735 -459.01295319 411.24902901 -474 400 C-474.57556641 399.56864746 -475.15113281 399.13729492 -475.74414062 398.69287109 C-484.65611344 391.96467552 -492.92918889 384.71089656 -501 377 C-501.72703125 376.32582031 -502.4540625 375.65164063 -503.203125 374.95703125 C-535.07370159 344.57633934 -556.98251694 296.25420062 -558.19833374 252.3500061 C-559.45086417 194.15571663 -539.83663287 145.20702824 -501 102 C-500.50113281 101.43941895 -500.00226563 100.87883789 -499.48828125 100.30126953 C-489.22803628 88.79805787 -478.06383487 78.72267742 -465.81054688 69.38232422 C-464.62560849 68.4776423 -463.44444528 67.56798888 -462.26757812 66.65283203 C-446.49848979 54.40538743 -429.06362496 44.45377648 -411 36 C-410.24041992 35.6395459 -409.48083984 35.2790918 -408.69824219 34.90771484 C-373.63229971 18.33506744 -336.30886969 9.15961239 -298 4 C-297.17145508 3.88527344 -296.34291016 3.77054688 -295.48925781 3.65234375 C-294.75288086 3.55050781 -294.01650391 3.44867187 -293.2578125 3.34375 C-292.34346436 3.21709961 -292.34346436 3.21709961 -291.41064453 3.08789062 C-278.33894662 1.42180303 -265.29380851 0.80332894 -252.125 0.8125 C-251.11102646 0.81290787 -251.11102646 0.81290787 -250.0765686 0.81332397 C-216.42801439 0.87436909 -183.18382381 4.52852415 -149.98779297 9.84277344 C-145.32888007 10.58709398 -140.6668879 11.30740542 -136 12 C-135.29757172 12.10458527 -134.59514343 12.20917053 -133.87142944 12.31692505 C-121.76769282 14.06751616 -109.78005954 14.36166417 -97.5625 14.3125 C-96.5967807 14.31034485 -95.6310614 14.3081897 -94.63607788 14.30596924 C-65.898729 14.20330512 -38.63192303 10.45077516 -11.40234375 0.8828125 C-7.31034061 -0.17894721 -4.21855491 -0.31199729 0 0 Z M-332 54 C-332.73541016 54.19819336 -333.47082031 54.39638672 -334.22851562 54.60058594 C-374.73130791 65.61338147 -409.88682987 81.56847307 -442.24121094 108.54980469 C-443.75779897 109.80029509 -445.30226357 111.01683594 -446.8515625 112.2265625 C-477.85149819 136.48330976 -501.88762589 171.402823 -511.25 209.6875 C-511.50869873 210.74517578 -511.76739746 211.80285156 -512.03393555 212.89257812 C-516.39043029 231.46400849 -516.94920663 252.29800996 -513 271 C-512.75507812 272.2065625 -512.51015625 273.413125 -512.2578125 274.65625 C-501.79995201 322.49127855 -468.59422802 362.88993282 -428 389 C-422.48101313 392.41542924 -416.85723573 395.63458291 -411.18261719 398.78320312 C-409.24754043 399.86199759 -407.32935338 400.96476044 -405.4140625 402.078125 C-367.01280338 423.69530977 -321.78547225 434.45850035 -277.88696289 434.26074219 C-275.06830281 434.25002207 -272.25028161 434.26071115 -269.43164062 434.2734375 C-253.28114598 434.28716463 -237.4567447 433.05682535 -221.625 429.75 C-220.57610596 429.53384033 -219.52721191 429.31768066 -218.4465332 429.0949707 C-187.03893325 422.43951117 -155.67253116 410.68344136 -130 391 C-128.96230469 390.25492188 -127.92460938 389.50984375 -126.85546875 388.7421875 C-109.44554581 375.98894404 -94.26402203 359.69947314 -82 342 C-81.59958496 341.43361816 -81.19916992 340.86723633 -80.78662109 340.28369141 C-68.50163356 322.77171555 -59.5671077 303.28917162 -53 283 C-52.59265625 281.7625 -52.1853125 280.525 -51.765625 279.25 C-48.90684321 269.92597324 -47.12431191 260.32361563 -45.47436523 250.72119141 C-45.15888192 248.91142453 -44.81729658 247.10600907 -44.44946289 245.30615234 C-42.32610409 233.88492655 -42.64780587 222.32529707 -42.6875 210.75 C-42.68965515 209.63062042 -42.6918103 208.51124084 -42.69403076 207.35794067 C-42.83073368 163.25544428 -49.36882483 116.21052625 -81.55615234 83.41650391 C-120.13017641 45.57299907 -190.82810948 43.33623812 -241.9230957 43.64404297 C-271.92496771 43.96969449 -302.94958029 46.15775055 -332 54 Z " fill="#9C9C9C" transform="translate(973,1002)"/>
<path d="M0 0 C26.48548353 -0.46187348 52.61573646 0.69826744 79 3 C80.87437744 3.16024658 80.87437744 3.16024658 82.78662109 3.32373047 C91.20937735 4.06444651 99.60497435 4.9960705 108 6 C109.51303711 6.18042847 109.51303711 6.18042847 111.05664062 6.36450195 C118.34539121 7.23651117 125.63173238 8.12672309 132.91641235 9.03210449 C135.41072033 9.34158431 137.90532653 9.64867095 140.40023804 9.95324707 C143.93857786 10.38700604 147.47524495 10.83255989 151.01171875 11.28125 C152.07108643 11.40937073 153.1304541 11.53749146 154.22192383 11.66949463 C160.72506488 12.51045837 166.78556797 13.9033762 173 16 C173 16.66 173 17.32 173 18 C173.54011719 18.23203125 174.08023438 18.4640625 174.63671875 18.703125 C177.67283552 20.36922544 180.19759589 22.50471903 182.8125 24.75 C183.36929443 25.22445557 183.92608887 25.69891113 184.49975586 26.18774414 C191.53255216 32.23849644 198.2903466 38.59503825 205 45 C205.80308594 45.75410156 206.60617187 46.50820313 207.43359375 47.28515625 C209 49 209 49 209 51 C209.66 51 210.32 51 211 51 C212.234375 52.22265625 212.234375 52.22265625 213.75 54.0625 C217.97861651 59.04941273 222.4485833 63.79095606 226.93652344 68.54321289 C230.43133093 72.26069065 233.77542995 76.04533862 237 80 C238.32 79.34 239.64 78.68 241 78 C233.75649075 57.8190787 211.42655967 39.21656437 196.43798828 24.421875 C194.2825787 22.29061772 192.14139058 20.14533421 190 18 C217.13971511 22.57548942 243.33792783 28.8217498 270 36 C270 64.71 270 93.42 270 123 C257.69717769 124.23028223 245.96202549 125.36433245 233.6875 125.3125 C232.98620972 125.31067719 232.28491943 125.30885437 231.56237793 125.30697632 C165.56947626 125.02138538 107.18935586 92.4020185 57 52 C56.36352539 51.48969238 55.72705078 50.97938477 55.07128906 50.45361328 C47.25362808 44.17926311 39.53430339 37.80762894 31.95288086 31.24951172 C28.37584986 28.15934436 24.74490379 25.15248725 21.0625 22.1875 C13.18403564 15.77399168 5.65808884 8.48713325 0 0 Z " fill="#606060" transform="translate(754,701)"/>
<path d="M0 0 C0.90771149 -0.00012085 1.81542297 -0.0002417 2.75064087 -0.00036621 C49.11135553 0.08692777 49.11135553 0.08692777 67.6875 9.375 C67.6875 47.655 67.6875 85.935 67.6875 125.375 C62.1786771 123.72235313 57.08023133 122.17820178 51.78808594 120.14306641 C26.02495642 110.7229356 -1.45278726 106.00019839 -28.34716797 101.09008789 C-29.24028687 100.92483109 -30.13340576 100.75957428 -31.05358887 100.58930969 C-32.74137258 100.27714275 -34.430062 99.96982057 -36.11975098 99.6681366 C-39.79159914 98.98531478 -43.09865519 98.33967379 -46.3125 96.375 C-42.6483502 94.37036494 -38.98069312 92.37222534 -35.3125 90.375 C-33.7965625 89.54548828 -33.7965625 89.54548828 -32.25 88.69921875 C-18.04151148 80.97335312 -3.47435636 73.95453241 11.06274414 66.87353516 C13.64749647 65.61403793 16.23098986 64.35198259 18.81445312 63.08984375 C20.48950777 62.27328248 22.16463535 61.4568708 23.83984375 60.640625 C24.5962767 60.27076477 25.35270966 59.90090454 26.13206482 59.51983643 C30.66016821 57.31777217 35.22323761 55.22007929 39.83448792 53.19769287 C41.13305195 52.62116162 42.41670282 52.01039859 43.6875 51.375 C43.6875 50.055 43.6875 48.735 43.6875 47.375 C15.54141136 50.76394603 -12.82152862 67.67826878 -37.625 80.6875 C-38.37281738 81.07897217 -39.12063477 81.47044434 -39.89111328 81.8737793 C-43.54027565 83.81120444 -47.09735379 85.83390682 -50.6015625 88.0234375 C-51.30112061 88.44971436 -52.00067871 88.87599121 -52.72143555 89.31518555 C-54.01046147 90.10777593 -55.28511517 90.92462504 -56.53833008 91.77270508 C-62.40380059 95.36026014 -67.73202715 94.30777541 -74.3125 93.375 C-76.69911002 93.08504116 -79.08583438 92.79602231 -81.47265625 92.5078125 C-83.41983442 92.25928392 -85.36701012 92.01073511 -87.31408691 91.76141357 C-115.58503075 88.17542612 -143.82555627 86.12216039 -172.29980469 85.02099609 C-173.23063873 84.9842981 -174.16147278 84.9476001 -175.12051392 84.90979004 C-176.85539922 84.84225135 -178.59040202 84.77763291 -180.32553101 84.7166748 C-185.69564877 84.50957529 -190.97681466 84.02120411 -196.3125 83.375 C-192.70413616 79.62526369 -188.92979985 76.36347231 -184.8125 73.1875 C-183.89174683 72.47194946 -183.89174683 72.47194946 -182.95239258 71.74194336 C-181.68510046 70.75807952 -180.41662615 69.77573653 -179.14697266 68.79492188 C-177.46096667 67.48991644 -175.78209816 66.17639018 -174.10546875 64.859375 C-154.48409314 49.55717012 -133.89709379 35.92214776 -111.3125 25.375 C-110.61479492 25.0454834 -109.91708984 24.7159668 -109.19824219 24.37646484 C-74.5607082 8.11533248 -38.22342906 -0.07894775 0 0 Z " fill="#606060" transform="translate(956.3125,604.625)"/>
<path d="M0 0 C5.17120174 8.27392279 8.291618 17.24397601 11.5625 26.375 C12.09946107 27.86295726 12.63665501 29.35083049 13.17407227 30.83862305 C16.64864902 40.4796093 20.03890375 50.14825219 23.34790039 59.84741211 C25.60452853 66.4312461 27.95255031 72.97633304 30.35546875 79.5078125 C30.9636484 81.16690151 31.57180268 82.82599983 32.17993164 84.48510742 C33.37611236 87.7469052 34.58430892 91.00393519 35.79858398 94.2590332 C36.34793181 95.75455912 36.89686146 97.25023873 37.4453125 98.74609375 C37.70624191 99.43547028 37.96717133 100.1248468 38.23600769 100.83511353 C39.98860504 105.65918488 39.98860504 105.65918488 38.875 109 C37.53501953 108.89171875 37.53501953 108.89171875 36.16796875 108.78125 C11.14387568 106.97897845 -13.89732259 107.20515871 -38.74780273 110.72460938 C-41.125 111 -41.125 111 -45.125 111 C-46.15451952 103.28486034 -46.18332157 95.68477234 -46.08508301 87.91146851 C-45.95824498 76.47359203 -45.96646201 65.28049513 -48.125 54 C-48.25922363 53.28634277 -48.39344727 52.57268555 -48.53173828 51.83740234 C-50.31147933 42.57604777 -52.62305568 33.86774819 -56.171875 25.11328125 C-57.30517479 21.41147824 -57.70508366 18.84525152 -57.125 15 C-53.31906514 10.93722291 -48.98542702 8.66210374 -43.875 6.5 C-43.18680176 6.20665771 -42.49860352 5.91331543 -41.78955078 5.61108398 C-11.04901872 -7.07137198 -11.04901872 -7.07137198 0 0 Z " fill="#626262" transform="translate(501.125,459)"/>
<path d="M0 0 C1.7109375 1.68359375 1.7109375 1.68359375 2.2734375 4.99609375 C1.58496977 9.50938217 0.17509899 11.86478997 -3.2890625 14.68359375 C-11.82626098 20.1617361 -19.12896538 22.58301218 -29.2890625 21.68359375 C-32.4140625 20.55859375 -32.4140625 20.55859375 -34.2890625 18.68359375 C-34.9765625 15.93359375 -34.9765625 15.93359375 -34.2890625 12.68359375 C-29.91830978 5.79182666 -23.50627177 1.60080915 -15.796875 -0.77734375 C-10.61187972 -1.89187545 -4.73126824 -2.72088293 0 0 Z " fill="#979897" transform="translate(784.2890625,1212.31640625)"/>
<path d="M0 0 C2.5993079 2.24078267 2.96646281 3.72052341 3.375 7.125 C2.34560591 17.76207223 -1.8611172 26.31790678 -9.8125 33.5625 C-13.44255953 35.94796769 -15.63142088 36.2730362 -20 36 C-22.55324504 33.44675496 -22.41486326 32.31233168 -22.5625 28.75 C-22.40485621 20.01653376 -18.65063601 12.03732816 -12.82421875 5.59375 C-8.75360453 1.96219655 -5.67166988 -0.69166706 0 0 Z " fill="#979797" transform="translate(716,1211)"/>
<path d="M0 0 C5.62611173 6.40751614 6.41494803 13.70930766 6.25 21.92578125 C5.75861709 27.96825546 4.69239535 33.08492106 0.625 37.6875 C-2 39 -2 39 -4.625 38.9375 C-7.76794191 37.69686504 -9.3966119 36.16953003 -10.94921875 33.16015625 C-14.34958692 23.49879271 -14.14213719 13.42202879 -10 4 C-7.2121 -0.03764827 -4.85597679 -1.01166183 0 0 Z " fill="#979797" transform="translate(719,1091)"/>
<path d="M0 0 C1.7734375 1.28515625 1.7734375 1.28515625 3 3 C2.88544699 9.98773371 0.99546993 13.96915051 -3.984375 19.0078125 C-9.69127696 24.34081398 -15.28772556 29.11271002 -23.375 29.375 C-27 29 -27 29 -29 27 C-29.99188463 21.04869224 -28.05980577 17.41696319 -24.84375 12.43359375 C-18.80631256 4.46468798 -10.47235206 -2.0346284 0 0 Z " fill="#989897" transform="translate(814,1150)"/>
<path d="M0 0 C0.7734375 -0.020625 1.546875 -0.04125 2.34375 -0.0625 C8.59860822 -0.10447891 14.50577086 0.75524624 19.3125 5.125 C20.25 7.25 20.25 7.25 20.4375 9.6875 C18.58086456 13.69392385 15.21679341 15.49895367 11.25 17.25 C2.33666686 19.17557061 -6.65606919 19.50003008 -14.9453125 15.41796875 C-16.86253955 14.17716596 -18.30815948 13.02457295 -19.75 11.25 C-19.9375 8.0625 -19.9375 8.0625 -19.75 5.25 C-12.8293291 1.12421543 -8.0138992 0.05237843 0 0 Z " fill="#979797" transform="translate(573.75,1241.75)"/>
<path d="M0 0 C2.8125 0.625 2.8125 0.625 4.6875 2.6875 C7.13259961 9.07192676 5.68469987 14.09363552 3.078125 20.1328125 C-0.10191302 26.39473921 -4.35412163 31.69639824 -10.1875 35.625 C-13.9375 36.5625 -13.9375 36.5625 -17.1875 36.625 C-19.81304632 33.99945368 -19.5157598 32.72225736 -19.5625 29.0625 C-19.36675327 18.82249942 -14.5439518 11.34224907 -7.6796875 4.015625 C-5.18929306 1.69473385 -3.34938146 0.65674146 0 0 Z " fill="#989897" transform="translate(626.1875,1337.375)"/>
<path d="M0 0 C3.31884674 0.06637693 5.98128985 0.19701671 8.66015625 2.30859375 C15.692805 10.09666769 18.29912453 19.07864528 18.23046875 29.36328125 C17.90632585 33.07169579 16.59730218 35.40269782 14 38 C10.51348346 38.06836307 8.00666679 37.91169822 5.34375 35.5 C-1.36190058 27.01529926 -3.44559115 18.91289405 -3.43359375 8.19921875 C-2.96726775 4.75848906 -1.98826043 2.81098888 0 0 Z " fill="#989897" transform="translate(734,1351)"/>
<path d="M0 0 C5.32483435 0.13312086 8.26918943 2.20792897 12.03515625 5.69921875 C18.40091248 13.15335477 21.69686733 22.24385739 21 32 C19.5 34.9375 19.5 34.9375 18 37 C12.53446488 36.86336162 9.72814501 34.60831217 5.89453125 31.03125 C-0.88491548 23.76256485 -3.18474661 16.39160917 -3.36328125 6.5859375 C-2.94308947 3.59489492 -1.98418821 2.23024849 0 0 Z " fill="#969796" transform="translate(613,1116)"/>
<path d="M0 0 C1.25490234 -0.03867188 1.25490234 -0.03867188 2.53515625 -0.078125 C5.42133858 0.31608527 6.77468815 1.35192032 8.9375 3.25 C8.65990233 7.87662775 7.99392829 11.26767258 4.796875 14.765625 C-1.99286272 20.18600385 -9.99448231 23.378789 -18.625 23.4375 C-19.57503906 23.45167969 -20.52507813 23.46585938 -21.50390625 23.48046875 C-24.0625 23.25 -24.0625 23.25 -27.0625 21.25 C-27.65127436 17.91361196 -27.72722201 15.49838035 -26.1015625 12.4453125 C-19.83017225 4.28888009 -10.08459096 0.18704033 0 0 Z " fill="#989898" transform="translate(534.0625,1285.75)"/>
<path d="M0 0 C1.97320804 1.5089238 2.86950149 2.43568212 3.43359375 4.875 C3.45354778 15.72998973 -0.49628733 23.2228998 -7.87890625 31.00390625 C-10.57524418 33.54134397 -12.27873776 34.90984222 -16 35.375 C-19 35 -19 35 -20.875 33.5 C-23.31289418 28.08245738 -22.25021407 23.09845803 -20.5625 17.625 C-17.25138722 9.08518755 -9.96148061 -1.03765423 0 0 Z " fill="#989898" transform="translate(794,1086)"/>
<path d="M0 0 C0.495 0.495 0.99 0.99 1.5 1.5 C1.37913686 7.3014306 -0.30245761 10.35236143 -4.2578125 14.5703125 C-10.45469103 19.90351458 -17.79456826 23.61765433 -26 23.75 C-26.9590625 23.77578125 -27.918125 23.8015625 -28.90625 23.828125 C-31.5 23.5 -31.5 23.5 -33.40625 22.359375 C-34.5 20.5 -34.5 20.5 -34.43359375 17.62890625 C-32.52511272 11.23269996 -27.35330406 6.33010756 -21.8203125 2.78125 C-15.29223669 -0.55058691 -6.88170588 -4.12902353 0 0 Z " fill="#979797" transform="translate(607.5,1292.5)"/>
<path d="M0 0 C3.59258856 0.96386522 5.45059711 2.74778332 7.5625 5.6875 C11.66423611 12.81945127 13.70684516 18.37511767 13.8125 26.625 C13.83828125 27.83027344 13.8640625 29.03554687 13.890625 30.27734375 C13.53736009 33.94877554 12.84206979 35.8139578 10.5625 38.6875 C7.6875 39.3125 7.6875 39.3125 4.5625 38.6875 C-1.10295155 34.10118207 -5.3996998 27.9900697 -6.4375 20.6875 C-7.46005905 7.40972568 -7.46005905 7.40972568 -4.75 2.8125 C-2.4375 0.6875 -2.4375 0.6875 0 0 Z " fill="#979797" transform="translate(663.4375,1084.3125)"/>
<path d="M0 0 C1.87365234 -0.02126953 1.87365234 -0.02126953 3.78515625 -0.04296875 C6.9375 0.1875 6.9375 0.1875 8.9375 2.1875 C9.62078137 5.37614639 9.45446875 7.35303597 7.72265625 10.1484375 C1.48960906 17.80408605 -7.18924499 23.36891961 -17.12890625 24.40234375 C-20.48133669 24.55669138 -22.65891913 24.42964852 -25.5625 22.6875 C-26.0575 22.1925 -26.5525 21.6975 -27.0625 21.1875 C-26.84303191 15.81053168 -25.68972003 12.84507518 -22.015625 8.89453125 C-15.34336676 3.06297755 -8.83026839 0.04565806 0 0 Z " fill="#989897" transform="translate(875.0625,1143.8125)"/>
<path d="M0 0 C8.54597802 0.10987686 15.13696386 4.72033875 21.125 10.5 C24.90734198 14.59237001 27.453231 17.41062581 27.9375 23.125 C27.625 26.4375 27.625 26.4375 25.625 28.4375 C17.8851626 29.58414258 12.09203122 26.5347332 5.625 22.4375 C0.82965055 18.5705302 -3.3567506 14.3661076 -5.375 8.4375 C-5.625 4.625 -5.625 4.625 -5.375 1.4375 C-3.78896441 -0.14853559 -2.20105447 0.11456593 0 0 Z " fill="#989897" transform="translate(830.375,1311.5625)"/>
<path d="M0 0 C1.665322 3.330644 1.58268414 6.4133811 1 10 C-2.41781632 19.40845378 -7.74531826 25.99643296 -15.625 32 C-18.60392978 33.25428622 -20.79994976 33.35556114 -24 33 C-26.41816448 30.58183552 -26.34788063 29.83173174 -26.4375 26.5 C-26.26216603 18.39957073 -22.14652734 11.41543301 -16.734375 5.54296875 C-11.86339747 1.20955405 -6.58827471 -2.47060301 0 0 Z " fill="#979797" transform="translate(671,1284)"/>
<path d="M0 0 C5.49929989 1.73126108 8.66891269 6.02876656 11.44921875 10.97265625 C13.74721971 16.0730974 14.52352442 21.01237725 14.5625 26.5625 C14.57667969 27.4803125 14.59085938 28.398125 14.60546875 29.34375 C14.35392949 32.31106062 13.74405667 34.42151567 12.375 37.0625 C9.6875 38.25 9.6875 38.25 6.375 38.0625 C-0.56286299 34.196477 -3.2003557 27.83780738 -5.875 20.75 C-7.10289688 14.71284034 -7.80917571 8.63679503 -5.1875 2.9375 C-2.79504049 0.06654858 -2.79504049 0.06654858 0 0 Z " fill="#979796" transform="translate(708.625,1276.9375)"/>
<path d="M0 0 C10.24296387 0.25373705 16.57017711 4.31959404 23.96875 11.15625 C26.820532 14.27127342 27.91303355 16.28791938 28.25 20.5 C28 23.375 28 23.375 26 25.375 C16.92255544 27.0574574 8.97723962 22.86910436 1.625 18 C-2.2846037 15.11697463 -4.93374701 12.78926776 -7 8.375 C-7.375 5.125 -7.375 5.125 -7 2.375 C-4.47583796 -0.14916204 -3.50215204 0.04974648 0 0 Z " fill="#979796" transform="translate(749,1260.625)"/>
<path d="M0 0 C7.20565537 1.75625305 14.23522768 4.68423682 19.1171875 10.49609375 C19.6171875 13.99609375 19.6171875 13.99609375 19.1171875 17.49609375 C13.83280236 21.59670086 8.50970739 21.1837976 2.1171875 20.49609375 C-5.34608973 18.83318848 -12.11067586 15.64628054 -16.8828125 9.49609375 C-17.78082173 6.95995781 -17.8828125 5.22822735 -17.8828125 2.49609375 C-12.60806197 -2.13002156 -6.58573376 -1.15116484 0 0 Z " fill="#979797" transform="translate(817.8828125,1258.50390625)"/>
<path d="M0 0 C1.37671875 -0.02126953 1.37671875 -0.02126953 2.78125 -0.04296875 C6.84776891 0.30175053 9.60656483 1.29406483 12.5 4.1875 C13.0625 6.9375 13.0625 6.9375 12.5 10.1875 C7.67434918 16.11248548 0.88594013 18.95472335 -6.5 20.1875 C-17.60228199 21.16016551 -17.60228199 21.16016551 -21.6796875 19.0703125 C-23.3125 17.6875 -23.3125 17.6875 -25.5 15.1875 C-25.41950482 12.45066383 -24.94704167 10.69406279 -23.12109375 8.625 C-16.33623649 2.55353937 -9.09694206 0.06388302 0 0 Z " fill="#979796" transform="translate(646.5,1242.8125)"/>
<path d="M0 0 C5.71294191 2.12017565 13.30042962 5.62820299 16.140625 11.30859375 C16.59486405 16.64590254 16.59486405 16.64590254 15 18.97265625 C10.86746752 21.94182874 4.96579002 20.78948926 0.140625 20.30859375 C-8.17191087 18.40520585 -16.0431946 14.53286435 -20.859375 7.30859375 C-21.234375 4.80859375 -21.234375 4.80859375 -20.859375 2.30859375 C-15.65558824 -2.95834576 -6.66034207 -1.61049255 0 0 Z " fill="#979797" transform="translate(881.859375,1265.69140625)"/>
<path d="M0 0 C7.77601237 0.2990774 12.0017331 3.75740332 17.125 9.25 C22.5500385 15.61038996 25.4836256 20.63989032 25.3359375 29.1171875 C25 31 25 31 23 33 C18.28678632 33.76950427 15.39245594 32.95848612 11.4375 30.5 C4.96793199 25.8159005 0.3771053 19.65956152 -2 12 C-2.31955905 8.63702143 -2.47176052 5.35133771 -2 2 C-1.34 1.34 -0.68 0.68 0 0 Z " fill="#979797" transform="translate(640,1179)"/>
<path d="M0 0 C1 1 1 1 1.4375 4.5625 C1.34828687 10.79626714 -2.51649257 14.53871635 -6.74609375 18.73046875 C-13.01458412 24.38467499 -18.06540241 26.32834359 -26.51171875 26.3984375 C-29 26 -29 26 -30.81640625 24.66796875 C-32 23 -32 23 -32.25 19.9375 C-30.77051249 12.42870317 -23.19128646 6.48438782 -17.1875 2.375 C-11.66280229 -0.70875422 -6.18838781 -0.80540797 0 0 Z " fill="#989898" transform="translate(573,1340)"/>
<path d="M0 0 C2.17460034 1.88566743 2.91132018 2.56768587 3.5 5.4375 C3 8 3 8 1 10.125 C-8.01721814 15.76076134 -18.37500633 16.69444304 -28.7421875 14.390625 C-31.6849161 13.33426089 -33.78134664 12.21865336 -36 10 C-36.5 7.6875 -36.5 7.6875 -36 5 C-26.7420473 -4.72085033 -11.75767913 -5.98976107 0 0 Z " fill="#979797" transform="translate(901,1215)"/>
<path d="M0 0 C3.125 0.75 3.125 0.75 5.125 3.75 C6.15329707 13.61447772 5.51938587 22.64045842 -0.40625 30.87890625 C-4.10309278 35.36404639 -4.10309278 35.36404639 -6.875 36.75 C-12.19362712 37.20264912 -12.19362712 37.20264912 -14.5390625 35.64453125 C-17.61589119 31.28119232 -16.34813884 24.8185678 -15.875 19.75 C-14.05927693 11.48217922 -8.79494406 1.70224724 0 0 Z " fill="#979797" transform="translate(748.875,1141.25)"/>
<path d="M0 0 C1.19496094 -0.00386719 1.19496094 -0.00386719 2.4140625 -0.0078125 C4.375 0.125 4.375 0.125 5.375 1.125 C5.92065185 7.45456142 5.01598158 10.97434313 1.375 16.125 C0.818125 16.970625 0.26125 17.81625 -0.3125 18.6875 C-5.16378754 23.8010193 -12.05452224 28.8118002 -19.1875 29.4375 C-22.625 29.125 -22.625 29.125 -24.625 28.125 C-25.93464882 25.50570237 -25.94008237 23.36854454 -25.44921875 20.5078125 C-22.43907616 11.80550454 -15.6587849 5.27658115 -7.625 1.125 C-4.78285932 0.17761977 -2.94891609 -0.00960559 0 0 Z " fill="#989898" transform="translate(849.625,1096.875)"/>
<path d="M0 0 C7.15978674 1.59424585 13.28486866 5.35650083 18 11 C19.1875 14.25 19.1875 14.25 19 17 C17.21220342 19.59230504 16.03997185 19.98667605 13 21 C2.33994634 22.13358444 -6.74980142 18.62363504 -15 12 C-17.625 9.4375 -17.625 9.4375 -19 7 C-18.9375 4.3125 -18.9375 4.3125 -18 2 C-12.72821853 -1.51452098 -6.13097228 -0.4892392 0 0 Z " fill="#979796" transform="translate(532,1182)"/>
<path d="M0 0 C3.47181021 0.67742638 4.43887076 1.66849434 6.5625 4.5 C10.63790879 12.35971696 10.89852362 21.23744687 8.73046875 29.77734375 C6.2687247 36.7937753 6.2687247 36.7937753 3.5625 39.5 C1.25 40 1.25 40 -1.4375 39.5 C-6.08919683 34.95648216 -8.1435098 30.75680054 -8.73828125 24.16796875 C-8.76641364 15.81264935 -8.01974541 9.31236645 -4.0625 1.9375 C-2.4375 0.5 -2.4375 0.5 0 0 Z " fill="#979797" transform="translate(683.4375,1336.5)"/>
<path d="M0 0 C8.63894386 2.6639252 15.83083754 10.11219841 20.453125 17.671875 C21.37604728 20.03400777 21.47566688 21.85004012 21.4296875 24.37890625 C21.42324219 25.16652344 21.41679688 25.95414063 21.41015625 26.765625 C21.2421875 28.69140625 21.2421875 28.69140625 20.2421875 29.69140625 C12.27558857 30.57658391 7.54542485 28.55574444 1.2421875 23.69140625 C-4.0773361 18.80473468 -8.23942427 12.61634567 -9.1953125 5.37890625 C-8.7578125 2.69140625 -8.7578125 2.69140625 -7.7578125 0.75390625 C-5.09329257 -0.66161996 -2.92854471 -0.50954532 0 0 Z " fill="#979797" transform="translate(774.7578125,1316.30859375)"/>
<path d="M0 0 C8.75941198 0.2919804 16.69490543 4.61247098 23.0625 10.375 C23.59101562 10.849375 24.11953125 11.32375 24.6640625 11.8125 C27.36481634 14.58869389 28.39872996 16.84464155 28.5625 20.625 C28.3975 21.8625 28.2325 23.1 28.0625 24.375 C24.25253894 26.91497404 21.45940771 27.17571482 17.0625 26.375 C8.53882974 23.09666529 0.5736069 18.63388982 -4.4375 10.8125 C-5.9375 7.375 -5.9375 7.375 -5.8125 4.5625 C-4.47580584 1.22076459 -3.59721775 0.45921929 0 0 Z " fill="#979796" transform="translate(590.9375,1190.625)"/>
<path d="M0 0 C1 1 1 1 1.4375 3.75 C1 7 1 7 -1.3125 9.625 C-9.50223124 15.5376798 -19.08750087 17.32506415 -29 16 C-32.02036985 14.94785915 -34.27009019 13.71288458 -37 12 C-37.28083777 9.02822575 -37.39021281 7.52099258 -35.56640625 5.0859375 C-25.64488632 -3.38506782 -11.91611038 -6.95547776 0 0 Z " fill="#979797" transform="translate(845,1207)"/>
<path d="M0 0 C5.902719 5.461793 8.42682572 12.7459024 9.28125 20.578125 C9.49315446 26.33486284 8.77219141 30.91764909 6 36 C3.125 37.25 3.125 37.25 0 37 C-4.91376642 34.30912791 -6.99417917 30.03421699 -9 25 C-10.19198292 20.85153251 -10.18386079 16.78699064 -10.1875 12.5 C-10.19974609 11.74074219 -10.21199219 10.98148438 -10.22460938 10.19921875 C-10.24329686 3.08551708 -10.24329686 3.08551708 -8 0 C-4.87163529 -1.56418235 -3.31254914 -1.08294876 0 0 Z " fill="#969796" transform="translate(689,1151)"/>
<path d="M0 0 C2.2677029 1.88561729 2.90950254 2.49579984 3.4375 5.4375 C2.84522836 8.9065196 1.81382276 9.90767026 -1 12 C-6.23822184 13.82682987 -10.95420867 14.38604389 -16.4375 14.375 C-17.18523682 14.37483887 -17.93297363 14.37467773 -18.70336914 14.37451172 C-25.40342068 14.23540017 -30.1033883 12.8966117 -35 8 C-35.5 5.125 -35.5 5.125 -35 2 C-25.11313969 -6.68114564 -11.11172034 -5.61216956 0 0 Z " fill="#979797" transform="translate(528,1238)"/>
<path d="M0 0 C8.91572891 0.99063655 15.30858883 6.77794312 20.9375 13.4375 C24.1440897 18.14717863 24.79855548 22.84623068 23.9375 28.4375 C21.9375 30.4375 21.9375 30.4375 18.875 30.9375 C10.84177425 29.91740784 4.42464447 23.90540385 -0.4375 17.67578125 C-4.22166219 12.54781147 -5.41975001 8.98708348 -5.0625 2.4375 C-3.0625 0.4375 -3.0625 0.4375 0 0 Z " fill="#979797" transform="translate(562.0625,1133.5625)"/>
<path d="M0 0 C0 0.66 0 1.32 0 2 C-0.99 2 -1.98 2 -3 2 C-2.690625 2.61875 -2.38125 3.2375 -2.0625 3.875 C-1.375 5.25 -0.6875 6.625 0 8 C-2.91580509 8.48495085 -5.83248754 8.96301802 -8.75 9.4375 C-9.55566406 9.57220703 -10.36132812 9.70691406 -11.19140625 9.84570312 C-25.37795202 12.13565736 -39.41933551 12.1233789 -53.75 12.0625 C-55.81510308 12.05747502 -57.88020735 12.05291388 -59.9453125 12.04882812 C-64.9635713 12.03790143 -69.98177235 12.02069175 -75 12 C-75 11.67 -75 11.34 -75 11 C-73.96335205 10.94839722 -73.96335205 10.94839722 -72.90576172 10.89575195 C-49.83018802 9.67477205 -26.65970089 7.30270461 -4.421875 0.69921875 C-2 0 -2 0 0 0 Z " fill="#5F5F5F" transform="translate(929,1005)"/>
<path d="M0 0 C3.79160297 -0.05786668 7.58309311 -0.09355054 11.375 -0.125 C12.45523438 -0.14175781 13.53546875 -0.15851563 14.6484375 -0.17578125 C15.6796875 -0.18222656 16.7109375 -0.18867187 17.7734375 -0.1953125 C19.20308838 -0.21102295 19.20308838 -0.21102295 20.66162109 -0.22705078 C23 0 23 0 25 2 C18 3 18 3 11 4 C11 3.34 11 2.68 11 2 C10.01 2 9.02 2 8 2 C7.67 2.66 7.34 3.32 7 4 C7 3.34 7 2.68 7 2 C4.69 2.66 2.38 3.32 0 4 C0 2.68 0 1.36 0 0 Z " fill="#585858" transform="translate(697,1474)"/>
<path d="M0 0 C-0.495 0.45375 -0.99 0.9075 -1.5 1.375 C-3.22609337 2.87635519 -3.22609337 2.87635519 -3 5 C-9.75 5.125 -9.75 5.125 -12 4 C-14.04055005 3.92934383 -16.08334257 3.91578024 -18.125 3.9375 C-19.22070312 3.94652344 -20.31640625 3.95554687 -21.4453125 3.96484375 C-22.70988281 3.98224609 -22.70988281 3.98224609 -24 4 C-20.33038859 1.5535924 -16.82197691 1.03850656 -12.5625 0.3125 C-11.79873047 0.17005859 -11.03496094 0.02761719 -10.24804688 -0.11914062 C-9.13719727 -0.3134668 -9.13719727 -0.3134668 -8.00390625 -0.51171875 C-7.33174072 -0.62990967 -6.6595752 -0.74810059 -5.96704102 -0.86987305 C-3.77398918 -1.01495144 -2.09295669 -0.63457442 0 0 Z " fill="#5A5A5A" transform="translate(916,1010)"/>
<path d="M0 0 C2.85977416 2.85977416 2.45870243 5.8453332 2.625 9.6875 C2.66367187 10.38294922 2.70234375 11.07839844 2.7421875 11.79492188 C3.44226775 25.18395664 3.44226775 25.18395664 1 29 C-0.38308781 26.23382437 -0.11210196 23.98982 -0.09765625 20.8984375 C-0.09443359 19.68671875 -0.09121094 18.475 -0.08789062 17.2265625 C-0.07951172 15.95554687 -0.07113281 14.68453125 -0.0625 13.375 C-0.05798828 12.09625 -0.05347656 10.8175 -0.04882812 9.5 C-0.03701203 6.33328708 -0.02053815 3.16666644 0 0 Z " fill="#5C5C5C" transform="translate(970,1194)"/>
<path d="M0 0 C0.33 0 0.66 0 1 0 C2.17700048 4.62459244 2.11408412 9.07866462 2.0625 13.8125 C2.05798828 14.60076172 2.05347656 15.38902344 2.04882812 16.20117188 C2.03711312 18.13414761 2.01917998 20.06708393 2 22 C1.01 21.67 0.02 21.34 -1 21 C-2.1263048 16.49478079 -2.1263048 16.49478079 -1.52734375 14.1484375 C-0.9131111 11.64600818 -0.9385668 9.44751525 -1 6.875 C-1.11048159 2.22096317 -1.11048159 2.22096317 0 0 Z " fill="#5E5E5E" transform="translate(975,1087)"/>
<path d="M0 0 C0 6.75759049 -8.32487534 12.36864896 -12.85717773 16.92089844 C-15.89511994 19.95705802 -18.94385625 22.98216857 -22 26 C-22.66 25.67 -23.32 25.34 -24 25 C-23.45061768 24.45585449 -22.90123535 23.91170898 -22.33520508 23.35107422 C-19.82495765 20.86173449 -17.31870516 18.36840907 -14.8125 15.875 C-13.94818359 15.0190625 -13.08386719 14.163125 -12.19335938 13.28125 C-7.90287305 9.00720232 -3.76074699 4.74959765 0 0 Z " fill="#CECECE" transform="translate(922,1405)"/>
<path d="M0 0 C0 3.71723336 -0.76993411 4.17701469 -3.28125 6.79296875 C-3.95800781 7.50517578 -4.63476562 8.21738281 -5.33203125 8.95117188 C-6.04746094 9.68916016 -6.76289062 10.42714844 -7.5 11.1875 C-8.21542969 11.93708984 -8.93085937 12.68667969 -9.66796875 13.45898438 C-11.43878603 15.31243979 -13.21624806 17.15900354 -15 19 C-15.66 18.67 -16.32 18.34 -17 18 C-14.73005136 15.56167482 -12.45888681 13.12448546 -10.1875 10.6875 C-9.54490234 9.99720703 -8.90230469 9.30691406 -8.24023438 8.59570312 C-7.61826172 7.92861328 -6.99628906 7.26152344 -6.35546875 6.57421875 C-5.49924927 5.65515747 -5.49924927 5.65515747 -4.62573242 4.7175293 C-3.11021909 3.11644261 -1.56708191 1.55047707 0 0 Z " fill="#333333" transform="translate(671,664)"/>
<path d="M0 0 C-1.65863505 4.32504836 -4.871041 7.09418825 -8.125 10.25 C-8.68832031 10.80429688 -9.25164063 11.35859375 -9.83203125 11.9296875 C-11.21686028 13.29104485 -12.60783204 14.64614859 -14 16 C-14 12.56655118 -13.66795375 12.26243281 -11.4453125 9.86328125 C-10.91292969 9.28642578 -10.38054688 8.70957031 -9.83203125 8.11523438 C-9.26871094 7.52033203 -8.70539062 6.92542969 -8.125 6.3125 C-7.56941406 5.70599609 -7.01382813 5.09949219 -6.44140625 4.47460938 C-2.26376195 0 -2.26376195 0 0 0 Z " fill="#5A5A5A" transform="translate(910,1386)"/>
<path d="M0 0 C0.66 0.33 1.32 0.66 2 1 C-0.69319824 6.58507504 -3.40473961 11.9400039 -7 17 C-7.66 16.34 -8.32 15.68 -9 15 C-6.03 10.05 -3.06 5.1 0 0 Z " fill="#5B5B5B" transform="translate(940,1339)"/>
<path d="M0 0 C0 0.99 0 1.98 0 3 C-2.04573793 4.82401778 -4.0510778 6.44509149 -6.25 8.0625 C-6.83652344 8.50916016 -7.42304687 8.95582031 -8.02734375 9.41601562 C-10.90021193 11.57550867 -13.70054598 13.55444713 -17 15 C-17 14.01 -17 13.02 -17 12 C-14.55078125 10.09765625 -14.55078125 10.09765625 -11.3125 8.0625 C-7.35165068 5.55251123 -3.61137288 2.99496044 0 0 Z " fill="#575757" transform="translate(870,1421)"/>
<path d="M0 0 C2.5419589 -0.05434116 5.08273682 -0.0938339 7.625 -0.125 C8.33785156 -0.14175781 9.05070313 -0.15851562 9.78515625 -0.17578125 C14.2612164 -0.21684602 17.77949278 0.30913433 22 2 C22 2.33 22 2.66 22 3 C18.89510601 2.89008434 15.79142006 2.75946585 12.6875 2.625 C11.80642578 2.5940625 10.92535156 2.563125 10.01757812 2.53125 C9.17001953 2.49257813 8.32246094 2.45390625 7.44921875 2.4140625 C6.66893311 2.3826416 5.88864746 2.3512207 5.0847168 2.31884766 C3 2 3 2 0 0 Z M-2 2 C-0.35 2 1.3 2 3 2 C3 2.33 3 2.66 3 3 C1.35 3 -0.3 3 -2 3 C-2 2.67 -2 2.34 -2 2 Z " fill="#686969" transform="translate(888,1013)"/>
<path d="M0 0 C-2.18283925 0.84770456 -4.36996079 1.67807547 -6.5625 2.5 C-8.38974609 3.19609375 -8.38974609 3.19609375 -10.25390625 3.90625 C-14.0418919 5.01223121 -17.07903233 5.20185162 -21 5 C-18.28432704 2.28432704 -15.23593892 1.75968758 -11.625 0.8125 C-10.95210937 0.62236328 -10.27921875 0.43222656 -9.5859375 0.23632812 C-6.09905932 -0.69373485 -3.42363738 -1.37823351 0 0 Z " fill="#C8C8C8" transform="translate(746,651)"/>
<path d="M0 0 C0.66 0.33 1.32 0.66 2 1 C0.0894422 2.96463019 -1.82795314 4.92166401 -3.75 6.875 C-4.55824219 7.70837891 -4.55824219 7.70837891 -5.3828125 8.55859375 C-10.37208686 13.60871292 -10.37208686 13.60871292 -14 15 C-12.40153531 10.75091664 -9.1869608 8.17774261 -5.875 5.25 C-5.31167969 4.74339844 -4.74835938 4.23679687 -4.16796875 3.71484375 C-2.78348469 2.47115468 -1.39238512 1.23483695 0 0 Z " fill="#A8A9A9" transform="translate(495,1081)"/>
<path d="M0 0 C0.66 0.33 1.32 0.66 2 1 C-0.28356246 3.34138543 -2.57813374 5.67166982 -4.875 8 C-5.85146484 9.00160156 -5.85146484 9.00160156 -6.84765625 10.0234375 C-7.47285156 10.65507812 -8.09804688 11.28671875 -8.7421875 11.9375 C-9.3182373 12.52402344 -9.89428711 13.11054688 -10.48779297 13.71484375 C-12 15 -12 15 -14 15 C-12.46000416 11.16751036 -10.08835992 9.05935935 -7 6.375 C-6.113125 5.59898437 -5.22625 4.82296875 -4.3125 4.0234375 C-3.1678125 3.02183594 -3.1678125 3.02183594 -2 2 C-1.34 1.34 -0.68 0.68 0 0 Z " fill="#515151" transform="translate(757,375)"/>
<path d="M0 0 C0 3.21536008 -0.34952303 4.31413064 -2 7 C-3.9453125 8.921875 -3.9453125 8.921875 -6.125 10.75 C-7.21167969 11.67039062 -7.21167969 11.67039062 -8.3203125 12.609375 C-8.87460937 13.06828125 -9.42890625 13.5271875 -10 14 C-10.66 13.67 -11.32 13.34 -12 13 C-10.625 11.5 -10.625 11.5 -9 10 C-8.34 10 -7.68 10 -7 10 C-6.773125 9.46375 -6.54625 8.9275 -6.3125 8.375 C-4.56617944 5.21499137 -2.3597151 2.7323017 0 0 Z " fill="#595959" transform="translate(854,1108)"/>
<path d="M0 0 C0 3 0 3 -1.93359375 5.15625 C-2.75988281 5.9296875 -3.58617187 6.703125 -4.4375 7.5 C-7.9948738 10.73958021 -7.9948738 10.73958021 -10 15 C-11.32 14.67 -12.64 14.34 -14 14 C-9.38 9.38 -4.76 4.76 0 0 Z " fill="#D0D1D0" transform="translate(678,675)"/>
<path d="M0 0 C4.85000134 -0.88614956 9.61905865 -0.26113102 14 2 C14 2.33 14 2.66 14 3 C8.72 3 3.44 3 -2 3 C-1.34 2.01 -0.68 1.02 0 0 Z " fill="#565656" transform="translate(386,1348)"/>
<path d="M0 0 C0.33 0.66 0.66 1.32 1 2 C-1.66353372 7.88197029 -4.5806069 10.56076976 -10 14 C-8.43632643 10.47761953 -6.30504111 7.72876006 -3.875 4.75 C-3.15054688 3.85796875 -2.42609375 2.9659375 -1.6796875 2.046875 C-0.84824219 1.03367187 -0.84824219 1.03367187 0 0 Z " fill="#414142" transform="translate(810,501)"/>
<path d="M0 0 C2.63520741 2.40502363 4.40302943 5.0185849 6.25 8.0625 C7.06210937 9.37927734 7.06210937 9.37927734 7.890625 10.72265625 C8.25671875 11.47417969 8.6228125 12.22570312 9 13 C8.67 13.66 8.34 14.32 8 15 C7.67 14.01 7.34 13.02 7 12 C6.01 12 5.02 12 4 12 C2.66666667 8 1.33333333 4 0 0 Z " fill="#333433" transform="translate(573,641)"/>
<path d="M0 0 C0.33 0.66 0.66 1.32 1 2 C-0.07421875 4.53125 -0.07421875 4.53125 -1.6875 7.5 C-2.20699219 8.4796875 -2.72648437 9.459375 -3.26171875 10.46875 C-5.03558651 13.05182035 -6.10480286 13.94032 -9 15 C-7.68944504 12.68637791 -6.3766597 10.37407322 -5.0625 8.0625 C-4.50272461 7.0734668 -4.50272461 7.0734668 -3.93164062 6.06445312 C-1.11328125 1.11328125 -1.11328125 1.11328125 0 0 Z " fill="#313231" transform="translate(437,623)"/>
<path d="M0 0 C0.66 0.33 1.32 0.66 2 1 C0.78395887 2.32467011 -0.44845222 3.63432405 -1.6875 4.9375 C-2.37199219 5.66839844 -3.05648437 6.39929688 -3.76171875 7.15234375 C-6.23537632 9.19429843 -7.85043641 9.65249999 -11 10 C-7.50640535 6.40365256 -3.88901869 3.16548033 0 0 Z " fill="#C8C9C8" transform="translate(886,578)"/>
<path d="M0 0 C0 3 0 3 -1.75 5.04296875 C-2.4925 5.75066406 -3.235 6.45835938 -4 7.1875 C-4.7425 7.90292969 -5.485 8.61835937 -6.25 9.35546875 C-7.11625 10.16951172 -7.11625 10.16951172 -8 11 C-8.66 10.67 -9.32 10.34 -10 10 C-8.7121669 8.51749445 -7.41960936 7.03909182 -6.125 5.5625 C-5.40570312 4.73878906 -4.68640625 3.91507813 -3.9453125 3.06640625 C-2 1 -2 1 0 0 Z " fill="#595959" transform="translate(920,1373)"/>
<path d="M0 0 C0.66 0.33 1.32 0.66 2 1 C-1.3 4.63 -4.6 8.26 -8 12 C-8.66 11.67 -9.32 11.34 -10 11 C-8.52116808 9.35386588 -7.04192523 7.70810092 -5.5625 6.0625 C-4.73878906 5.14597656 -3.91507812 4.22945312 -3.06640625 3.28515625 C-1 1 -1 1 0 0 Z " fill="#3D3D3D" transform="translate(111,877)"/>
<path d="M0 0 C0 3.60573896 -0.81707462 4.41336566 -3 7.1875 C-3.556875 7.90292969 -4.11375 8.61835937 -4.6875 9.35546875 C-5.120625 9.89816406 -5.55375 10.44085937 -6 11 C-6.66 10.34 -7.32 9.68 -8 9 C-7.04663979 7.68388323 -6.08714226 6.37221039 -5.125 5.0625 C-4.59132813 4.33160156 -4.05765625 3.60070313 -3.5078125 2.84765625 C-2 1 -2 1 0 0 Z " fill="#5B5B5B" transform="translate(929,1360)"/>
<path d="M0 0 C0.66 0.33 1.32 0.66 2 1 C2.20086443 4.71599191 2.1519437 5.77208445 0 9 C0.66 9.33 1.32 9.66 2 10 C1.34 10 0.68 10 0 10 C-0.33 10.66 -0.66 11.32 -1 12 C-2.45606519 7.47907032 -1.27032841 4.48351204 0 0 Z " fill="#5D5C5C" transform="translate(967,1256)"/>
<path d="M0 0 C0 3.71884228 -0.8740066 4.36147729 -3.3125 7.0625 C-4.23482422 8.10083984 -4.23482422 8.10083984 -5.17578125 9.16015625 C-7 11 -7 11 -10 13 C-8.48446596 9.52224821 -6.4226544 7.0442016 -3.875 4.25 C-3.15054688 3.45078125 -2.42609375 2.6515625 -1.6796875 1.828125 C-0.84824219 0.92320312 -0.84824219 0.92320312 0 0 Z " fill="#414141" transform="translate(700,632)"/>
<path d="M0 0 C0.66 0.66 1.32 1.32 2 2 C-3.29230769 5.07692308 -3.29230769 5.07692308 -6.875 4.6875 C-7.57625 4.460625 -8.2775 4.23375 -9 4 C-6.01353231 2.00902154 -3.40312738 1.05875074 0 0 Z " fill="#5F5F5F" transform="translate(942,1000)"/>
<path d="M0 0 C1 3 1 3 0.1875 4.8125 C-0.204375 5.534375 -0.59625 6.25625 -1 7 C-1.68960962 8.99220557 -2.36079057 10.99105606 -3 13 C-3.66 12.67 -4.32 12.34 -5 12 C-4.35758106 10.186287 -3.71096881 8.37405876 -3.0625 6.5625 C-2.70285156 5.55316406 -2.34320313 4.54382812 -1.97265625 3.50390625 C-1 1 -1 1 0 0 Z " fill="#A7A7A7" transform="translate(429,1171)"/>
<path d="M0 0 C0.66 0 1.32 0 2 0 C2.83796731 4.65537393 3.0161692 8.37078475 2 13 C1.67 13 1.34 13 1 13 C0.67 8.71 0.34 4.42 0 0 Z " fill="#5F5E5E" transform="translate(961,1115)"/>
<path d="M0 0 C1.27875 -0.061875 2.5575 -0.12375 3.875 -0.1875 C4.95394531 -0.23970703 4.95394531 -0.23970703 6.0546875 -0.29296875 C6.69664062 -0.19628906 7.33859375 -0.09960938 8 0 C8.66 0.99 9.32 1.98 10 3 C6.7 3 3.4 3 0 3 C0 2.01 0 1.02 0 0 Z " fill="#515150" transform="translate(347,1346)"/>
<path d="M0 0 C0.66 0.33 1.32 0.66 2 1 C-1.17320782 4.53586014 -3.16743695 6.58578031 -8 7 C-5.42215154 4.35247996 -3.08351902 2.05567935 0 0 Z " fill="#363637" transform="translate(203,804)"/>
<path d="M0 0 C0.66 0.33 1.32 0.66 2 1 C-0.54631035 3.97069541 -3.42230149 5.4775751 -7 7 C-7.66 6.67 -8.32 6.34 -9 6 C-6.03 4.02 -3.06 2.04 0 0 Z " fill="#353534" transform="translate(316,732)"/>
<path d="M0 0 C0 0.66 0 1.32 0 2 C-2.64 2.66 -5.28 3.32 -8 4 C-8.33 3.34 -8.66 2.68 -9 2 C-3.375 -1.125 -3.375 -1.125 0 0 Z " fill="#565656" transform="translate(800,1486)"/>
<path d="M0 0 C0.99 0 1.98 0 3 0 C1.125 5.75 1.125 5.75 0 8 C-0.66 8 -1.32 8 -2 8 C-1.34 5.36 -0.68 2.72 0 0 Z " fill="#616060" transform="translate(959,1290)"/>
<path d="M0 0 C0.33 0.66 0.66 1.32 1 2 C-1.31 4.64 -3.62 7.28 -6 10 C-6 6.41087588 -5.33563446 5.89142971 -3 3.3125 C-2.443125 2.68988281 -1.88625 2.06726563 -1.3125 1.42578125 C-0.879375 0.95527344 -0.44625 0.48476563 0 0 Z " fill="#424242" transform="translate(791,525)"/>
<path d="M0 0 C-2.71182212 2.60334924 -3.89133813 2.99456691 -7.75 3.1875 C-8.8225 3.125625 -9.895 3.06375 -11 3 C-7.72430636 -0.27569364 -4.48909309 -0.12469703 0 0 Z " fill="#666666" transform="translate(848,510)"/>
<path d="M0 0 C0.66 0.33 1.32 0.66 2 1 C-0.64 2.98 -3.28 4.96 -6 7 C-6 6.01 -6 5.02 -6 4 C-3 1.8125 -3 1.8125 0 0 Z " fill="#9FA09F" transform="translate(587,1295)"/>
<path d="M0 0 C0.33 0.99 0.66 1.98 1 3 C1.66 3.33 2.32 3.66 3 4 C2.01 4.495 2.01 4.495 1 5 C0.27306096 6.97888961 -0.39816251 8.97954558 -1 11 C-1.33 11 -1.66 11 -2 11 C-1.125 3.375 -1.125 3.375 0 0 Z " fill="#A2A2A2" transform="translate(924,1268)"/>
<path d="M0 0 C0.66 0.66 1.32 1.32 2 2 C-1.96 3.98 -1.96 3.98 -6 6 C-6 5.01 -6 4.02 -6 3 C-4.02 2.01 -2.04 1.02 0 0 Z " fill="#5C5C5C" transform="translate(964,990)"/>
<path d="M0 0 C0.66 0.99 1.32 1.98 2 3 C1.67 3.66 1.34 4.32 1 5 C-0.98 5 -2.96 5 -5 5 C-3.35 3.35 -1.7 1.7 0 0 Z " fill="#5B5C5B" transform="translate(692,1495)"/>
<path d="M0 0 C0 4.38968456 -2.12805101 5.76905739 -5 9 C-5 4.61031544 -2.87194899 3.23094261 0 0 Z " fill="#C7C8C8" transform="translate(922,1405)"/>
<path d="M0 0 C1.32 0.99 2.64 1.98 4 3 C3.34 3 2.68 3 2 3 C2.33 4.32 2.66 5.64 3 7 C2.01 7.495 2.01 7.495 1 8 C-0.35439668 5.29120665 -0.06501451 2.99066732 0 0 Z " fill="#5D5C5C" transform="translate(968,1170)"/>
<path d="M0 0 C4.455 0.99 4.455 0.99 9 2 C7.02 2.99 7.02 2.99 5 4 C2.30066074 3.07451225 1.28813232 2.57626463 0 0 Z " fill="#656666" transform="translate(944,719)"/>
<path d="M0 0 C0.99 0 1.98 0 3 0 C2.67 1.65 2.34 3.3 2 5 C0.02 5.33 -1.96 5.66 -4 6 C-2.1875 3 -2.1875 3 0 0 Z " fill="#434344" transform="translate(780,538)"/>
</svg>
